<?xml version="1.0" encoding="utf-8"?>
<!-- Generator: Adobe Illustrator 26.0.1, SVG Export Plug-In . SVG Version: 6.00 Build 0)  -->
<svg version="1.1" id="Layer_1" xmlns="http://www.w3.org/2000/svg" xmlns:xlink="http://www.w3.org/1999/xlink" x="0px" y="0px"
	 viewBox="0 0 1931 1790" style="enable-background:new 0 0 1931 1790;" xml:space="preserve">
<style type="text/css">
	.st0{fill:#CE578D;}
</style>
<path id="Path_2433_00000039812881902926751820000003608108897655628162_" class="st0" d="M1793.8,137.3
	c38.8-33.9,90.5-43.8,136.7-30.9c0.2,0,0.3,0.1,0.5,0.1V3.3c-0.2,0-0.3-0.1-0.5-0.1c-70.5-11.3-145.3,7.5-203.2,58
	c-61,53.2-89.5,129.9-84.3,205c-73.7-15.4-153.5,2.4-214.6,55.6c-103.4,90.2-114.2,247.6-24,351.1c28.5,32.7,93.4,93.6,196.4,119
	c-127,156.2-340.5,238.9-485.8,262.3c-175.1,28.2-350,83.9-520,165.6c-162.1,78-313.6,176.1-451.1,292.1
	c-50.6,42.6-98.4,86.9-143.5,132.7c-0.2,0.2-0.3,0.3-0.5,0.5v145c0.2-0.2,0.3-0.4,0.5-0.6c281-319.1,701.1-566.4,1130.7-635.6
	c98.3-15.8,203.9-51.5,297.4-100.5c62.7-32.9,119.9-71.1,169.7-112.7c0.8-0.6,1.5-1.2,2.3-1.9c0.5-0.4,1-0.9,1.5-1.3
	c30.5-25.6,58.9-53.6,85-83.6c7.7-8.6,15.1-17.2,22.2-25.8c7.1-8.6,13.8-17.1,20.2-25.6c48.7-3.4,102.7-14.8,162.1-37.6
	c13.2-4.4,26.2-9.3,39.1-14.6c0.2-0.1,0.3-0.1,0.5-0.2V640.1c-0.2,0.1-0.3,0.1-0.5,0.2c-30.2,13.8-59.9,26-89.5,34.5
	c-13.5,3.9-27.2,7.1-41,9.3c31.7-71.3,41.2-136.9,36.4-193.2c30.9,6.9,62.8,8,94.1,3c0.2,0,0.3-0.1,0.5-0.1V390.9
	c-0.2,0.1-0.3,0.1-0.5,0.1c-53.1,14.7-112.4-1-151-45.2C1726,284.4,1732.4,190.9,1793.8,137.3z M1677,700.2
	c-107.5-7.1-171-64.7-196.4-93.8c-53.6-61.4-47.1-154.9,14.2-208.5c61.4-53.6,154.9-47.1,208.5,14.3
	C1745.2,460.2,1759.6,567.8,1677,700.2z"/>
<path id="Path_2438_00000120542330377358438750000009270801684848282270_" class="st0" d="M1930.5-3280.1c0.2,0,0.3-0.1,0.5-0.1
	v-104.6c-0.2,0-0.3,0.1-0.5,0.1c-19.4,4.9-38.4,10.6-57.1,17.1c-178.5,55-293.9,170.2-364.4,314.4c-40.8,83.5-60.7,182-55.7,277.2
	c5.4,104.6,39.4,197.6,98.3,269.1c45.5,55.2,100.1,96.9,159.7,128.6c68.5,36.5,143.7,59.6,219.2,74.6c0.2,0,0.3,0.1,0.5,0.1v-103.1
	c-0.2,0-0.3-0.1-0.5-0.1c-115.3-25.5-225.9-73-301.1-164.3c-100.6-122-91.1-312.6-29.8-437.8
	C1662-3136.5,1784.5-3236.5,1930.5-3280.1z M1930.4-3908c0,0,0.1,0,0.1,0c0.2,0,0.3,0,0.5,0.1v-101.4c-0.2,0-0.3,0-0.5,0
	c-132.1-8.5-249,89-263.2,221.9c-14.6,136.4,84.6,259.2,221,273.8c14.2,1.5,28.3,1.8,42.2,0.9c0.2,0,0.3,0,0.5,0v-101.4
	c-0.2,0-0.3,0-0.5,0.1c-10.3,1.1-20.8,1.1-31.5,0c-81-8.6-139.9-81.6-131.2-162.6h0C1776.4-3857.8,1849.4-3916.7,1930.4-3908z"/>
<path id="Path_2434" class="st0" d="M747.3-2496c-88.4,0-166.9,42.6-216.5,108.2c-49.7-65.6-128.1-108.2-216.5-108.2
	c-149.8,0-271.7,121.9-271.7,271.7c0,48.1,10,147,79.3,243.3c-36.1,4-72.5,6-108.8,5.9c-4.3,0-8.5,0.5-12.5,1.4
	c-0.2,0-0.3,0.1-0.5,0.1c-24.2,5.9-42.2,27.6-42.2,53.6c0,26,18,47.8,42.2,53.6c0.2,0,0.3,0.1,0.5,0.1c4,0.9,8.2,1.4,12.5,1.4
	c76.7,0,144.3-7.2,203.8-19.8c95.8,72.6,243.6,130.8,471.3,144.6c1.1,0.1,2.3,0.1,3.4,0.1c30.5,0,55.2-24.7,55.1-55.2
	c0-29.2-22.7-53.3-51.9-55c-150.9-9.1-259.9-39.4-338.7-79.3c79.2-36.1,135.3-84.1,172.4-134.6c49.5,67.3,129,111.3,218.8,111.3
	c149.8,0,271.7-121.9,271.7-271.7C1019-2374.1,897.1-2496,747.3-2496z M247.2-2006.2c-83.4-83.1-94.4-176-94.4-218.1
	c0-89,72.4-161.4,161.4-161.4s161.3,72.4,161.3,161.4C475.6-2154.8,410.2-2055.9,247.2-2006.2z M747.3-2062.9
	c-89,0-161.4-72.4-161.4-161.3c0-89,72.4-161.4,161.4-161.4c89,0,161.3,72.4,161.3,161.4C908.6-2135.3,836.3-2062.9,747.3-2062.9z"
	/>
<path id="Path_2435" class="st0" d="M196.3-895.4c-38.8-87.2-101.1-165.9-175.4-221.8c-6.7-5-13.5-10-20.3-14.7
	c-0.2-0.1-0.3-0.2-0.5-0.3v129.9c0.2,0.2,0.3,0.3,0.5,0.5C93.1-912,162.3-768.1,132.2-632.8c-19.6,88-68.9,162.7-131.7,226.5
	c-0.2,0.2-0.3,0.3-0.5,0.5v136.1c0.2-0.1,0.3-0.3,0.5-0.4c54.7-44.7,105.4-95.5,146.2-153.6c38.8-55.3,68.5-117.3,84-187.1
	C250.8-701.4,238.9-799.7,196.3-895.4z"/>
<path id="Path_2436" class="st0" d="M246.8,3641c-81,0.1-152.8,39.3-198.1,99.4c-13.8-18.2-30-34.4-48.1-48.2
	c-0.2-0.1-0.3-0.3-0.5-0.4v397.1c0.2-0.2,0.3-0.3,0.5-0.5c18.2-16.5,33.6-33.8,46.5-51.5c45.4,61.6,118.3,101.8,200.5,101.6
	c137.2-0.2,248.6-112,248.4-249.2C495.7,3752.2,383.9,3640.8,246.8,3641z M247.4,4037.5c-81.5,0.1-147.9-66-148-147.5
	s66-147.9,147.5-148c81.5-0.1,147.9,66.1,148,147.5C395,3971,328.9,4037.4,247.4,4037.5z M576.7,4636.1
	c-55.1-150.8-157.8-277.3-329.6-350.8c-18.1-8.5-36.7-16.2-55.7-23.2c-38-13.9-77.4-24.6-115.5-35.1c-25.7-7.1-51.1-14-75.5-21.7
	c-0.2-0.1-0.3-0.1-0.5-0.2v105.4c0.2,0,0.3,0.1,0.5,0.1c16.3,4.7,32.6,9.2,48.8,13.6c37.8,10.4,73.5,20.1,107.6,32.6
	c152,55.5,273.5,172.8,325.1,313.8c47.9,131,37.3,321.5-75.4,432.3c-105.8,104-259.5,133.7-406,138.1c-0.2,0-0.3,0-0.5,0v100.9
	c0.2,0,0.3,0,0.5,0c101.6-2.8,207.7-16.8,304.4-55.9c62.6-25.3,121.3-61.1,172.3-111.2c66.1-64.9,109.6-153.9,125.9-257.4
	C618,4823.4,608.6,4723.4,576.7,4636.1z"/>
<path id="Path_2437" class="st0" d="M1678.2,5511.2c78.1-31.4,165.5-41.5,252.3-30.9c0.2,0,0.3,0,0.5,0.1V5374c-0.2,0-0.3,0-0.5-0.1
	c-100.8-10.6-198.1,6.7-290,43.7c-86.2,34.7-166.8,94.6-226.9,168.7c-66,81.3-103,173.2-107,265.8c-3.1,71.4,9.5,139,32.6,202.5
	c53.2,146.2,161.9,270.5,261,369.9c106.6,106.9,220.3,209.2,330.3,308.1c0.2,0.2,0.3,0.3,0.5,0.5v-135.8c-0.2-0.2-0.3-0.3-0.5-0.5
	c-87.4-79-175.6-160.2-258.8-243.6c-127.6-127.9-272.9-299.9-264.3-496.7C1414.3,5698.6,1548.8,5563.3,1678.2,5511.2z"/>
</svg>
