<svg xmlns="http://www.w3.org/2000/svg" width="316.665" height="80.333" viewBox="0 0 316.665 80.333">
  <g id="Group_837" data-name="Group 837" transform="translate(766.956 -335.378)">
    <path id="Path_1693" data-name="Path 1693" d="M-733.718,386.67c-1.551-4.829-6.473-10.1-15.633-10.449-.018,0-.041,0-.058,0-3.708-.128-6.364-1.611-7.117-3.953a2.868,2.868,0,0,1,.665-3.166c3.505-2.694,10-2.514,15.117.425a4.692,4.692,0,0,0,6.406-1.73,4.691,4.691,0,0,0-1.729-6.406c-8.48-4.874-18.972-4.762-25.518.274a12.231,12.231,0,0,0-3.877,13.472c1.552,4.828,6.473,10.1,15.637,10.451h.069c3.707.127,6.349,1.609,7.1,3.951a2.867,2.867,0,0,1-.663,3.166c-3.825,2.939-11.12,2.426-16.265-1.151a4.7,4.7,0,0,0-6.533,1.175,4.694,4.694,0,0,0,1.175,6.532,27.544,27.544,0,0,0,15.24,4.721,19.6,19.6,0,0,0,12.108-3.84A12.227,12.227,0,0,0-733.718,386.67Z" transform="translate(0 -6.395)" fill="#fff"/>
    <path id="Path_1694" data-name="Path 1694" d="M-691.613,357.791A23.132,23.132,0,0,0-714.719,380.9c0,.011,0,.021,0,.033,0,.036-.01.071-.01.107v34.3a4.693,4.693,0,0,0,4.693,4.692,4.693,4.693,0,0,0,4.693-4.692v-15.9A22.951,22.951,0,0,0-691.613,404,23.132,23.132,0,0,0-668.507,380.9,23.132,23.132,0,0,0-691.613,357.791Zm0,36.828A13.736,13.736,0,0,1-705.334,380.9a13.737,13.737,0,0,1,13.722-13.722A13.737,13.737,0,0,1-677.892,380.9,13.736,13.736,0,0,1-691.613,394.62Z" transform="translate(-14.89 -6.39)" fill="#fff"/>
    <path id="Path_1695" data-name="Path 1695" d="M-342.436,340.071a4.693,4.693,0,0,0-4.693-4.693,4.693,4.693,0,0,0-4.693,4.693v15.9a22.954,22.954,0,0,0-13.731-4.566,23.133,23.133,0,0,0-23.106,23.108,23.133,23.133,0,0,0,23.106,23.106,23.133,23.133,0,0,0,23.107-23.106c0-.011,0-.022,0-.034,0-.036.011-.071.011-.108Zm-23.116,48.159a13.736,13.736,0,0,1-13.721-13.721,13.737,13.737,0,0,1,13.721-13.722,13.737,13.737,0,0,1,13.722,13.722A13.736,13.736,0,0,1-365.552,388.229Z" transform="translate(-107.855)" fill="#fff"/>
    <path id="Path_1696" data-name="Path 1696" d="M-501.086,357.791A23.133,23.133,0,0,0-524.193,380.9v18.414A4.693,4.693,0,0,0-519.5,404a4.693,4.693,0,0,0,4.692-4.693V380.9a13.739,13.739,0,0,1,13.723-13.722A13.737,13.737,0,0,1-487.365,380.9v18.414A4.693,4.693,0,0,0-482.672,404a4.693,4.693,0,0,0,4.693-4.693V380.9A23.133,23.133,0,0,0-501.086,357.791Z" transform="translate(-69.213 -6.39)" fill="#fff"/>
    <path id="Path_1697" data-name="Path 1697" d="M-411.565,380.171a10.6,10.6,0,0,0,.078-10.67,23.166,23.166,0,0,0-20.1-11.71,23.139,23.139,0,0,0-17.228,7.708,23.168,23.168,0,0,0-5.874,15.184c0,.071-.005.144-.005.216s0,.128,0,.192a23.339,23.339,0,0,0,.144,2.45,23.012,23.012,0,0,0,19.4,20.2,24.088,24.088,0,0,0,3.584.27,22.926,22.926,0,0,0,17.989-8.636,4.693,4.693,0,0,0-.716-6.6,4.7,4.7,0,0,0-6.6.716,13.7,13.7,0,0,1-12.864,4.968,13.808,13.808,0,0,1-10.736-8.865h23.52A10.78,10.78,0,0,0-411.565,380.171Zm-32.932-3.965a13.653,13.653,0,0,1,2.674-4.452,13.748,13.748,0,0,1,10.232-4.578,13.763,13.763,0,0,1,11.943,6.96,1.264,1.264,0,0,1-.026,1.313,1.485,1.485,0,0,1-1.3.757Z" transform="translate(-89.027 -6.39)" fill="#fff"/>
    <g id="Group_839" data-name="Group 839" transform="translate(-687.119 351.401)">
      <path id="Path_1698" data-name="Path 1698" d="M-588.142,357.791A23.058,23.058,0,0,0-606.556,367a23.062,23.062,0,0,0-18.414-9.206A23.133,23.133,0,0,0-648.078,380.9a35.894,35.894,0,0,0,6.743,20.687,82.286,82.286,0,0,1-9.253.5,4.693,4.693,0,0,0-4.693,4.693,4.694,4.694,0,0,0,4.693,4.693,83.835,83.835,0,0,0,17.334-1.683c8.151,6.175,20.716,11.127,40.082,12.3.1.006.193.009.288.009a4.693,4.693,0,0,0,4.68-4.409,4.691,4.691,0,0,0-4.4-4.967c-12.837-.777-22.1-3.348-28.807-6.742a36.7,36.7,0,0,0,14.659-11.445A23.065,23.065,0,0,0-588.142,404,23.132,23.132,0,0,0-565.036,380.9,23.132,23.132,0,0,0-588.142,357.791Zm-42.527,41.655a26.272,26.272,0,0,1-8.023-18.548,13.738,13.738,0,0,1,13.722-13.722A13.737,13.737,0,0,1-611.248,380.9C-611.248,386.809-616.811,395.219-630.669,399.446Zm42.527-4.827A13.736,13.736,0,0,1-601.864,380.9a13.737,13.737,0,0,1,13.722-13.722A13.737,13.737,0,0,1-574.421,380.9,13.736,13.736,0,0,1-588.142,394.62Z" transform="translate(655.28 -357.791)" fill="#ce578d"/>
      <g id="Group_837-2" data-name="Group 837" transform="translate(13.945 41.655)">
        <path id="Path_1699" data-name="Path 1699" d="M-625.108,416.059a59.425,59.425,0,0,1-10.666,2.139,38.526,38.526,0,0,0,8.081,8.206,56.65,56.65,0,0,0,11.844-3.808A36.033,36.033,0,0,1-625.108,416.059Z" transform="translate(635.773 -416.059)" fill="#821e4b"/>
      </g>
      <g id="Group_838" data-name="Group 838" transform="translate(44.032 9.206)">
        <path id="Path_1700" data-name="Path 1700" d="M-589,370.669a22.956,22.956,0,0,0-4.693,13.9,22.951,22.951,0,0,0,4.5,13.639A23.511,23.511,0,0,0-584.3,384.57,22.96,22.96,0,0,0-589,370.669Z" transform="translate(593.688 -370.669)" fill="#821e4b"/>
      </g>
    </g>
  </g>
</svg>
