<svg width="47" height="33" viewBox="0 0 47 33" fill="none" xmlns="http://www.w3.org/2000/svg">
<path d="M34.4341 0.011463C30.5769 0.011463 27.1553 1.87416 24.9888 4.73412C22.8223 1.87416 19.4007 0.011463 15.5435 0.011463C9.00399 0.011463 3.691 5.33018 3.691 11.8639C3.691 13.9616 4.12659 18.2774 7.15275 22.4785C5.69125 22.6447 4.10939 22.7364 2.40718 22.7364C1.0775 22.7364 0 23.8139 0 25.1435C0 26.4732 1.0775 27.5507 2.40718 27.5507C5.74857 27.5507 8.70022 27.2355 11.3023 26.6853C15.4862 29.8547 21.9282 32.3937 31.8664 32.9955C31.918 32.9955 31.9639 32.9955 32.0155 32.9955C33.2764 32.9955 34.3367 32.0097 34.4169 30.7316C34.4971 29.402 33.4884 28.2614 32.1587 28.1812C25.5734 27.78 20.8221 26.4618 17.3775 24.7252C20.8335 23.149 23.2808 21.0571 24.8971 18.8505C27.0578 21.7907 30.5253 23.705 34.4456 23.705C40.9793 23.705 46.298 18.3863 46.298 11.8525C46.298 5.31872 40.9793 0 34.4456 0L34.4341 0.011463ZM12.6205 21.3838C8.98106 17.7615 8.50536 13.7037 8.50536 11.8697C8.50536 7.98954 11.6633 4.83155 15.5435 4.83155C19.4236 4.83155 22.5816 7.98954 22.5816 11.8697C22.5816 14.9016 19.7274 19.2173 12.6205 21.3838ZM34.4341 18.9078C30.554 18.9078 27.396 15.7498 27.396 11.8697C27.396 7.98954 30.554 4.83155 34.4341 4.83155C38.3142 4.83155 41.4722 7.98954 41.4722 11.8697C41.4722 15.7498 38.3142 18.9078 34.4341 18.9078Z" fill="#CE578D"/>
</svg>
